<svg id="Layer_1" data-name="Layer 1" xmlns="http://www.w3.org/2000/svg" viewBox="0 0 140 35.94"><defs><style>.cls-1{fill:#04a195;}</style></defs><title>logo-prime-horizontal</title><rect y="31.06" width="137" height="3"/><circle cx="15.44" cy="32.68" r="3.26"/><circle cx="26.46" cy="32.68" r="3.26"/><circle cx="48.52" cy="32.68" r="3.26"/><circle cx="70.57" cy="32.68" r="3.26"/><circle cx="114.69" cy="32.68" r="3.26"/><circle cx="136.74" cy="32.68" r="3.26"/><path class="cls-1" d="M25.31,14.76H19.68v9.11H17.09V.68h8.69c4.21,0,7.39,2.22,7.39,6.93S30,14.76,25.31,14.76ZM25.68,3h-6v9.38h5.67c3.55,0,5.24-1.62,5.24-4.71S28.86,3,25.68,3Z"/><path class="cls-1" d="M53.49,13.8l5.1,10.08h-3l-5-9.88h-5.5v9.88H42.55V.68h9.18C55.81.68,59,2.77,59,7.24,59,10.85,56.8,13.11,53.49,13.8ZM51.63,3h-6.5v8.65H51.3c3.45,0,5.07-1.43,5.07-4.34S54.71,3,51.63,3Z"/><path class="cls-1" d="M69.23,23.88V.68h2.59v23.2H69.23Z"/><path class="cls-1" d="M100.58,23.88V5.68a40.36,40.36,0,0,1-1.39,3.85L93,24.48,86.89,9.53a36.45,36.45,0,0,1-1.36-3.85v18.2H83V.68h2.88L91.4,14.57c.56,1.39,1.39,3.55,1.66,4.51.3-1,1.13-3.15,1.66-4.51L100.25.68h2.82v23.2h-2.49Z"/><path class="cls-1" d="M114.14,23.88V.68h14V3H116.72v7.29h6.63v2.35h-6.63v8.85h11.93v2.35H114.14Z"/><circle class="cls-1" cx="70.6" cy="3.21" r="3.21"/></svg>